<svg width="143" height="149" viewBox="0 0 143 149" fill="none" xmlns="http://www.w3.org/2000/svg">
<circle cx="61.409" cy="61.409" r="61.409" transform="matrix(0.322596 -0.946537 -0.946537 -0.322596 110.379 152.875)" fill="#5BB991"/>
<mask id="path-2-outside-1_0_398" maskUnits="userSpaceOnUse" x="-5.54101" y="-5.8291" width="100.215" height="132.036" fill="black">
<rect fill="white" x="-5.54101" y="-5.8291" width="100.215" height="132.036"/>
<path d="M91.69 16.7505C79.3267 12.5368 65.9419 12.375 53.4803 16.2886C41.0188 20.2021 30.1296 27.9871 22.3951 38.5125C14.6605 49.0378 10.4834 61.7552 10.4708 74.8168C10.4581 87.8785 14.6105 100.604 22.3247 111.144L71.8797 74.8763L91.69 16.7505Z"/>
</mask>
<path d="M91.69 16.7505C79.3267 12.5368 65.9419 12.375 53.4803 16.2886C41.0188 20.2021 30.1296 27.9871 22.3951 38.5125C14.6605 49.0378 10.4834 61.7552 10.4708 74.8168C10.4581 87.8785 14.6105 100.604 22.3247 111.144L71.8797 74.8763L91.69 16.7505Z" fill="#E77D76"/>
<path d="M91.69 16.7505C79.3267 12.5368 65.9419 12.375 53.4803 16.2886C41.0188 20.2021 30.1296 27.9871 22.3951 38.5125C14.6605 49.0378 10.4834 61.7552 10.4708 74.8168C10.4581 87.8785 14.6105 100.604 22.3247 111.144L71.8797 74.8763L91.69 16.7505Z" stroke="#263885" stroke-width="4" mask="url(#path-2-outside-1_0_398)"/>
<mask id="path-3-outside-2_0_398" maskUnits="userSpaceOnUse" x="11.4533" y="-5.67057" width="83.1388" height="84.3867" fill="black">
<rect fill="white" x="11.4533" y="-5.67057" width="83.1388" height="84.3867"/>
<path d="M91.6462 16.8672C78.1696 12.2742 63.5142 12.5169 50.1971 17.5538C36.8799 22.5907 25.7322 32.1074 18.6684 44.4694L71.8768 74.8731L91.6462 16.8672Z"/>
</mask>
<path d="M91.6462 16.8672C78.1696 12.2742 63.5142 12.5169 50.1971 17.5538C36.8799 22.5907 25.7322 32.1074 18.6684 44.4694L71.8768 74.8731L91.6462 16.8672Z" fill="#F3B17D"/>
<path d="M91.6462 16.8672C78.1696 12.2742 63.5142 12.5169 50.1971 17.5538C36.8799 22.5907 25.7322 32.1074 18.6684 44.4694L71.8768 74.8731L91.6462 16.8672Z" stroke="#263885" stroke-width="4" mask="url(#path-3-outside-2_0_398)"/>
<circle cx="44.7532" cy="44.7532" r="44.7532" transform="matrix(0.322596 -0.946537 -0.946537 -0.322596 99.8008 131.672)" fill="#263883"/>
</svg>
